<?xml version="1.0" encoding="utf-8"?>
<!-- Generator: Adobe Illustrator 23.0.3, SVG Export Plug-In . SVG Version: 6.00 Build 0)  -->
<svg version="1.1" xmlns="http://www.w3.org/2000/svg" xmlns:xlink="http://www.w3.org/1999/xlink" x="0px" y="0px"
	 viewBox="0 0 1000 1000" style="enable-background:new 0 0 1000 1000;" xml:space="preserve">
<style type="text/css">
	.st0{fill:#6898B7;}
	.st1{fill:#0EB8C0;}
	.st2{fill:url(#SVGID_1_);}
</style>
<g id="Layer_4">
</g>
<g id="Layer_2">
</g>
<g id="Layer_3">
	<path class="st0" d="M700.44,580.94c0,110.7-89.74,200.44-200.44,200.44s-200.44-89.74-200.44-200.44S500,134,500,238.49
		C500,596.27,700.44,470.23,700.44,580.94z"/>
	<path class="st1" d="M700.36,580.94c0,110.65-89.7,200.36-200.36,200.36s-200.36-89.7-200.36-200.36s187.02-334.67,187.02-276.89
		C486.67,650.72,700.36,470.28,700.36,580.94z"/>
	<linearGradient id="SVGID_1_" gradientUnits="userSpaceOnUse" x1="318.5099" y1="568.8739" x2="733.9719" y2="722.4698">
		<stop  offset="0.0106" style="stop-color:#ED1C24"/>
		<stop  offset="0.0755" style="stop-color:#E93F23"/>
		<stop  offset="0.2113" style="stop-color:#E28422"/>
		<stop  offset="0.325" style="stop-color:#DDB622"/>
		<stop  offset="0.4108" style="stop-color:#DAD421"/>
		<stop  offset="0.4588" style="stop-color:#D9E021"/>
		<stop  offset="0.5664" style="stop-color:#D1DD24"/>
		<stop  offset="0.7293" style="stop-color:#BDD62C"/>
		<stop  offset="0.9263" style="stop-color:#9BCB39"/>
		<stop  offset="1" style="stop-color:#8CC63F"/>
	</linearGradient>
	<path class="st2" d="M700.44,580.94c0,110.7-89.74,200.44-200.44,200.44s-200.44-89.74-200.44-200.44s130.61-162.77,208.73-84.66
		C628.03,616.02,700.44,490.72,700.44,580.94z"/>
</g>
<g id="Layer_5">
</g>
</svg>
